<svg xmlns="http://www.w3.org/2000/svg" width="190" height="190"><!-- Created 
with Method Draw - http://github.com/duopixel/Method-Draw/ -->  
<g><title>background</title>   <rect id="canvas_background" fill="none" x="-1" 
y="-1" width="192" height="192" />   <g id="canvasGrid" overflow="visible" 
display="none" width="100%" height="100%" x="0" y="0"><rect fill="url(#gridpattern)" 
stroke-width="0" x="0" y="0" width="100%" height="100%" />   </g>  </g>  
<g><title>Layer 1</title>   <rect id="svg_7" fill="#f7f6f6" stroke="null" 
stroke-width="0" x="7.05128" y="141.179" width="176.923" height="40.5128" rx="8" 
/>   <rect id="svg_11" fill="#62918b" stroke="null" stroke-opacity="null" 
stroke-width="0" transform="rotate(-45 95.2624 95.6286)" x="30.2624" y="30.6286" 
width="130" height="130" rx="8" />   <rect id="svg_5" fill="#f7f6f6" stroke="null" 
stroke-width="0" x="25.1747" y="35.0256" width="141.026" height="125.128" rx="8" 
/>   <path id="svg_3" fill="#91bfb9" stroke-width="0" transform="rotate(90 40.4885 138.731)" 
d="m -4.38334 173.09 l 44.8718 -68.7179 l 44.8718 68.7179 l -89.7436 0 Z" />   
<path id="svg_2" fill="#86b7b1" stroke="#000" stroke-width="0" d="m 5.56398 184.372 l 90 -58.9743 l 90 58.9743 l -180 0 Z" 
/>   <path id="svg_4" fill="#74a59f" stroke-width="0" transform="rotate(-90 149.923 138.219)" 
d="m 105.051 172.578 l 44.8718 -68.7179 l 44.8718 68.7179 l -89.7436 0 Z" />   
<path id="svg_8" fill="none" stroke-width="0" d="m 85.6923 106.667 c 0.512825 0 1.03226 0.082146 1.53847 0 c 1.60074 -0.259766 2.51332 -3.02614 5.1282 -5.64102 c 1.30744 -1.30744 2.40634 -2.26201 4.10256 -4.61539 c 2.01146 -2.79076 2.15984 -4.46878 3.58975 -5.64102 c 1.68257 -1.37938 2.05128 -2.05129 2.5641 -2.05129 c 0.512817 0 1.02564 0 2.05128 0 c 1.53847 0 3.26364 -0.446121 6.15385 1.02564 c 3.93111 2.00182 6.39606 4.85759 8.71795 7.17949 c 2.32189 2.32189 3.66551 3.56071 4.61539 6.15384 c 0.557793 1.52274 1.49621 3.27532 2.05128 4.61539 c 0.588745 1.42136 0 2.5641 0 3.58975 c 0 0.512817 0 1.02564 0 2.05129 l 0 0.512817" 
/>   <path id="svg_18" opacity="0.5" fill="#f7f6f6" fill-opacity="null" stroke="null" 
stroke-opacity="null" stroke-width="0" transform="translate(191.507 121.918) scale(0.005) translate(-191.507 -121.918)" 
/>   <path id="svg_19" opacity="0.5" fill="#f7f6f6" fill-opacity="null" stroke="null" 
stroke-opacity="null" stroke-width="0" transform="translate(191.233 154.521) scale(0.005) translate(-191.233 -154.521)" 
/>   <path id="svg_20" opacity="0.5" fill="#f7f6f6" fill-opacity="null" stroke="null" 
stroke-opacity="null" stroke-width="0" transform="translate(203.288 169.042) scale(0.005) translate(-203.288 -169.042)" 
/>   <path id="svg_21" opacity="0.5" fill="#f7f6f6" fill-opacity="null" stroke="null" 
stroke-opacity="null" stroke-width="0" transform="translate(192.603 154.521) scale(0.005) translate(-192.603 -154.521)" 
/>   <path id="svg_22" opacity="0.5" fill="#f7f6f6" fill-opacity="null" stroke="null" 
stroke-opacity="null" stroke-width="0" transform="translate(192.603 137.535) scale(0.005) translate(-192.603 -137.535)" 
/>   <path id="svg_23" opacity="0.5" fill="#f7f6f6" fill-opacity="null" stroke="null" 
stroke-opacity="null" stroke-width="0" transform="translate(190.138 158.357) scale(0.005) translate(-190.138 -158.357)" 
/>   <path id="svg_24" opacity="0.5" fill="#f7f6f6" fill-opacity="null" stroke="null" 
stroke-opacity="null" stroke-width="0" transform="translate(190.138 158.357) scale(0.005) translate(-190.138 -158.357)" 
/>   <path id="svg_25" opacity="0.5" fill="#f7f6f6" fill-opacity="null" stroke="null" 
stroke-opacity="null" stroke-width="0" transform="translate(183.288 153.425) scale(0.005) translate(-183.288 -153.425)" 
/>   <path id="svg_26" opacity="0.5" fill="#f7f6f6" fill-opacity="null" stroke="null" 
stroke-opacity="null" stroke-width="0" transform="translate(194.521 173.425) scale(0.005) translate(-194.521 -173.425)" 
/>   <path id="svg_27" opacity="0.5" fill="#f7f6f6" fill-opacity="null" stroke="null" 
stroke-opacity="null" stroke-width="0" transform="translate(88.4934 157.809) scale(0.005) translate(-88.4934 -157.809)" 
/>   <path id="svg_28" opacity="0.5" fill="#f7f6f6" fill-opacity="null" stroke="null" 
stroke-opacity="null" stroke-width="0" transform="translate(162.466 161.918) scale(0.005) translate(-162.466 -161.918)" 
/>   <path id="svg_29" opacity="0.5" fill="#f7f6f6" fill-opacity="null" stroke="null" 
stroke-opacity="null" stroke-width="0" transform="translate(156.439 158.357) scale(0.005) translate(-156.439 -158.357)" 
/>   <text id="svg_31" font-family="Euphoria, sans-serif" font-size="18" fill="#b3b3b3" 
stroke="null" stroke-width="0" text-anchor="start" x="69.1109" y="107.7241" 
xmlns:xml="http://www.w3.org/XML/1998/namespace" 
xml:space="preserve">RESET</text>   <g id="svg_32"><rect id="svg_14" fill="#b3b3b3" 
stroke="null" stroke-opacity="null" stroke-width="0" x="87.2393" y="54.2525" 
width="18.0822" height="26" rx="8" />    <rect id="svg_16" fill="#f7f6f6" 
stroke="null" stroke-width="0" x="90.9269" y="57.6662" width="11" height="22" 
rx="5" />    <rect id="svg_13" fill="#b3b3b3" stroke="null" stroke-width="0" x="85.0475" 
y="67.5512" width="23.2877" height="15.3425" rx="2" />   </g>  </g> </svg>
